<svg width="394" height="70" viewBox="0 0 394 70" fill="none" xmlns="http://www.w3.org/2000/svg">
<rect width="394" height="70" fill="#BCCADF"/>
<path d="M47.2109 61.6094H42.4062V30.3906H29.2109C28.0547 30.3906 26.9688 30.6172 25.9531 31.0703C24.9531 31.5078 24.0781 32.1094 23.3281 32.875C22.5781 33.625 21.9844 34.5156 21.5469 35.5469C21.125 36.5625 20.9141 37.6484 20.9141 38.8047C20.9141 39.9609 21.125 41.0469 21.5469 42.0625C21.9844 43.0625 22.5781 43.9453 23.3281 44.7109C24.0781 45.4609 24.9531 46.0625 25.9531 46.5156C26.9688 46.9531 28.0547 47.1797 29.2109 47.1953H40.0156V52H29.2109C27.3984 52 25.6953 51.6562 24.1016 50.9688C22.5078 50.2656 21.1172 49.3203 19.9297 48.1328C18.7578 46.9297 17.8281 45.5312 17.1406 43.9375C16.4531 42.3281 16.1094 40.6172 16.1094 38.8047C16.1094 36.9922 16.4531 35.2891 17.1406 33.6953C17.8281 32.1016 18.7578 30.7109 19.9297 29.5234C21.1172 28.3203 22.5078 27.375 24.1016 26.6875C25.6953 25.9844 27.3984 25.625 29.2109 25.6094H47.2109V61.6094ZM84.7812 52H66.7812C64.9688 52 63.2656 51.6562 61.6719 50.9688C60.0781 50.2656 58.6875 49.3203 57.5 48.1328C56.3281 46.9297 55.3984 45.5312 54.7109 43.9375C54.0234 42.3281 53.6797 40.6172 53.6797 38.8047V25.6094H58.4844V38.8047C58.4844 39.9609 58.6953 41.0469 59.1172 42.0625C59.5547 43.0625 60.1484 43.9453 60.8984 44.7109C61.6484 45.4609 62.5234 46.0625 63.5234 46.5156C64.5391 46.9531 65.625 47.1797 66.7812 47.1953H79.9766V25.6094H84.7812V52ZM122.422 34C122.422 35.1719 122.203 36.2656 121.766 37.2812C121.328 38.2969 120.727 39.1875 119.961 39.9531C119.211 40.7031 118.32 41.2969 117.289 41.7344C116.273 42.1719 115.188 42.3906 114.031 42.3906H95.6328C95.9766 43.0938 96.4062 43.7422 96.9219 44.3359C97.4375 44.9297 98.0156 45.4375 98.6562 45.8594C99.2969 46.2812 99.9922 46.6094 100.742 46.8438C101.508 47.0781 102.305 47.1953 103.133 47.1953H118.836V52H103.133C101.32 51.9844 99.6172 51.6328 98.0234 50.9453C96.4297 50.2422 95.0391 49.2969 93.8516 48.1094C92.6797 46.9062 91.75 45.5078 91.0625 43.9141C90.375 42.3203 90.0312 40.6172 90.0312 38.8047C90.0312 36.9922 90.375 35.2891 91.0625 33.6953C91.75 32.1016 92.6797 30.7109 93.8516 29.5234C95.0391 28.3203 96.4297 27.375 98.0234 26.6875C99.6172 25.9844 101.32 25.625 103.133 25.6094H114.031C115.188 25.6094 116.273 25.8281 117.289 26.2656C118.32 26.7031 119.211 27.3047 119.961 28.0703C120.727 28.8203 121.328 29.7031 121.766 30.7188C122.203 31.7344 122.422 32.8281 122.422 34ZM114.031 37.6094C114.516 37.6094 114.977 37.5156 115.414 37.3281C115.852 37.1406 116.234 36.8828 116.562 36.5547C116.891 36.2266 117.148 35.8438 117.336 35.4062C117.523 34.9688 117.617 34.5 117.617 34C117.617 33.5156 117.523 33.0547 117.336 32.6172C117.148 32.1797 116.891 31.7969 116.562 31.4688C116.234 31.1406 115.852 30.8828 115.414 30.6953C114.977 30.4922 114.516 30.3906 114.031 30.3906H103.133C102.07 30.3906 101.07 30.5781 100.133 30.9531C99.2109 31.3281 98.3828 31.8438 97.6484 32.5C96.9297 33.1406 96.3281 33.9062 95.8438 34.7969C95.375 35.6719 95.0703 36.6094 94.9297 37.6094H114.031ZM154.695 43.6094C154.695 44.7656 154.477 45.8594 154.039 46.8906C153.602 47.9062 153 48.7969 152.234 49.5625C151.484 50.3125 150.594 50.9062 149.562 51.3438C148.547 51.7812 147.461 52 146.305 52H125.891V47.1953H146.305C146.789 47.1953 147.25 47.1016 147.688 46.9141C148.125 46.7266 148.508 46.4688 148.836 46.1406C149.164 45.8125 149.422 45.4375 149.609 45.0156C149.797 44.5781 149.891 44.1094 149.891 43.6094C149.891 43.125 149.797 42.6641 149.609 42.2266C149.422 41.7891 149.164 41.4062 148.836 41.0781C148.508 40.75 148.125 40.4922 147.688 40.3047C147.25 40.1016 146.789 40 146.305 40H133.086C132.086 40 131.148 39.8125 130.273 39.4375C129.398 39.0625 128.633 38.5547 127.977 37.9141C127.336 37.2578 126.828 36.4922 126.453 35.6172C126.078 34.7422 125.891 33.8047 125.891 32.8047C125.891 31.8047 126.078 30.8672 126.453 29.9922C126.828 29.1172 127.336 28.3594 127.977 27.7188C128.633 27.0625 129.398 26.5469 130.273 26.1719C131.148 25.7969 132.086 25.6094 133.086 25.6094H152.305V30.3906H133.086C132.414 30.3906 131.844 30.625 131.375 31.0938C130.922 31.5469 130.695 32.1172 130.695 32.8047C130.695 33.4766 130.922 34.0469 131.375 34.5156C131.844 34.9688 132.414 35.1953 133.086 35.1953H146.305C147.461 35.1953 148.547 35.4141 149.562 35.8516C150.594 36.2891 151.484 36.8906 152.234 37.6562C153 38.4219 153.602 39.3125 154.039 40.3281C154.477 41.3438 154.695 42.4375 154.695 43.6094ZM168.805 52H164V30.3906H156.805V25.6094H164V16H168.805V25.6094H185.609V30.3906H168.805V52ZM236.797 52H212.797C211.625 52 210.531 51.7812 209.516 51.3438C208.5 50.9062 207.609 50.3125 206.844 49.5625C206.078 48.7969 205.477 47.9062 205.039 46.8906C204.602 45.8594 204.383 44.7656 204.383 43.6094C204.383 42.4375 204.602 41.3438 205.039 40.3281C205.477 39.3125 206.078 38.4219 206.844 37.6562C207.609 36.8906 208.5 36.2891 209.516 35.8516C210.531 35.4141 211.625 35.1953 212.797 35.1953H229.578V40H212.797C212.297 40 211.828 40.1016 211.391 40.3047C210.953 40.4922 210.57 40.75 210.242 41.0781C209.914 41.4062 209.656 41.7891 209.469 42.2266C209.281 42.6641 209.188 43.125 209.188 43.6094C209.188 44.1094 209.281 44.5781 209.469 45.0156C209.656 45.4375 209.914 45.8125 210.242 46.1406C210.57 46.4688 210.953 46.7266 211.391 46.9141C211.828 47.1016 212.297 47.1953 212.797 47.1953H231.992V34C231.992 33.5156 231.891 33.0547 231.688 32.6172C231.5 32.1797 231.242 31.7969 230.914 31.4688C230.586 31.1406 230.203 30.8828 229.766 30.6953C229.328 30.4922 228.867 30.3906 228.383 30.3906H209.188V25.6094H228.383C229.555 25.6094 230.648 25.8281 231.664 26.2656C232.68 26.7031 233.57 27.3047 234.336 28.0703C235.102 28.8203 235.703 29.7031 236.141 30.7188C236.578 31.7344 236.797 32.8281 236.797 34V52ZM272.961 53.1953C272.961 54.3672 272.734 55.4609 272.281 56.4766C271.844 57.4922 271.242 58.3828 270.477 59.1484C269.727 59.9141 268.836 60.5156 267.805 60.9531C266.789 61.3906 265.703 61.6094 264.547 61.6094H245.352V56.8047H264.547C265.031 56.8047 265.492 56.7109 265.93 56.5234C266.367 56.3359 266.75 56.0781 267.078 55.75C267.406 55.4219 267.664 55.0391 267.852 54.6016C268.055 54.1641 268.156 53.6953 268.156 53.1953V30.3906H254.961C253.805 30.4062 252.719 30.6406 251.703 31.0938C250.703 31.5312 249.828 32.1328 249.078 32.8984C248.328 33.6484 247.734 34.5312 247.297 35.5469C246.875 36.5625 246.664 37.6484 246.664 38.8047C246.664 39.9609 246.875 41.0469 247.297 42.0625C247.734 43.0625 248.328 43.9453 249.078 44.7109C249.828 45.4609 250.703 46.0625 251.703 46.5156C252.719 46.9531 253.805 47.1797 254.961 47.1953H265.766V52H254.961C253.148 51.9844 251.445 51.6328 249.852 50.9453C248.258 50.2422 246.867 49.2969 245.68 48.1094C244.508 46.9062 243.578 45.5078 242.891 43.9141C242.203 42.3203 241.859 40.6172 241.859 38.8047C241.859 36.9922 242.203 35.2891 242.891 33.6953C243.578 32.1016 244.508 30.7109 245.68 29.5234C246.867 28.3203 248.258 27.375 249.852 26.6875C251.445 25.9844 253.148 25.625 254.961 25.6094H272.961V53.1953ZM311.773 38.8047C311.773 40.6172 311.43 42.3203 310.742 43.9141C310.055 45.5078 309.117 46.9062 307.93 48.1094C306.758 49.2969 305.375 50.2422 303.781 50.9453C302.188 51.6328 300.484 51.9844 298.672 52H291.289C289.477 51.9844 287.773 51.6328 286.18 50.9453C284.586 50.2422 283.195 49.2969 282.008 48.1094C280.836 46.9062 279.906 45.5078 279.219 43.9141C278.531 42.3203 278.188 40.6172 278.188 38.8047C278.188 36.9922 278.531 35.2891 279.219 33.6953C279.906 32.0859 280.836 30.6875 282.008 29.5C283.195 28.2969 284.586 27.3516 286.18 26.6641C287.773 25.9609 289.477 25.6094 291.289 25.6094H298.672C299.875 25.6094 301.039 25.7656 302.164 26.0781C303.289 26.3906 304.336 26.8359 305.305 27.4141C306.273 27.9922 307.156 28.6875 307.953 29.5C308.75 30.2969 309.43 31.1875 309.992 32.1719C310.555 33.1406 310.992 34.1875 311.305 35.3125C311.617 36.4375 311.773 37.6016 311.773 38.8047ZM306.992 38.8047C306.992 37.6484 306.773 36.5625 306.336 35.5469C305.898 34.5312 305.305 33.6484 304.555 32.8984C303.805 32.1328 302.922 31.5312 301.906 31.0938C300.906 30.6406 299.828 30.4062 298.672 30.3906H291.289C290.133 30.4062 289.047 30.6406 288.031 31.0938C287.031 31.5312 286.156 32.1328 285.406 32.8984C284.656 33.6484 284.062 34.5312 283.625 35.5469C283.203 36.5625 282.992 37.6484 282.992 38.8047C282.992 39.9609 283.203 41.0469 283.625 42.0625C284.062 43.0781 284.656 43.9688 285.406 44.7344C286.156 45.4844 287.031 46.0859 288.031 46.5391C289.047 46.9766 290.133 47.1953 291.289 47.1953H298.672C299.828 47.1953 300.906 46.9766 301.906 46.5391C302.922 46.0859 303.805 45.4844 304.555 44.7344C305.305 43.9688 305.898 43.0781 306.336 42.0625C306.773 41.0469 306.992 39.9609 306.992 38.8047ZM343.25 30.3906H325.25C324.75 30.3906 324.281 30.4922 323.844 30.6953C323.406 30.8828 323.023 31.1406 322.695 31.4688C322.367 31.7969 322.109 32.1797 321.922 32.6172C321.734 33.0547 321.641 33.5156 321.641 34V52H316.836V34C316.836 32.8281 317.055 31.7344 317.492 30.7188C317.93 29.7031 318.531 28.8203 319.297 28.0703C320.062 27.3047 320.953 26.7031 321.969 26.2656C322.984 25.8281 324.078 25.6094 325.25 25.6094H343.25V30.3906ZM376.391 52H352.391C351.219 52 350.125 51.7812 349.109 51.3438C348.094 50.9062 347.203 50.3125 346.438 49.5625C345.672 48.7969 345.07 47.9062 344.633 46.8906C344.195 45.8594 343.977 44.7656 343.977 43.6094C343.977 42.4375 344.195 41.3438 344.633 40.3281C345.07 39.3125 345.672 38.4219 346.438 37.6562C347.203 36.8906 348.094 36.2891 349.109 35.8516C350.125 35.4141 351.219 35.1953 352.391 35.1953H369.172V40H352.391C351.891 40 351.422 40.1016 350.984 40.3047C350.547 40.4922 350.164 40.75 349.836 41.0781C349.508 41.4062 349.25 41.7891 349.062 42.2266C348.875 42.6641 348.781 43.125 348.781 43.6094C348.781 44.1094 348.875 44.5781 349.062 45.0156C349.25 45.4375 349.508 45.8125 349.836 46.1406C350.164 46.4688 350.547 46.7266 350.984 46.9141C351.422 47.1016 351.891 47.1953 352.391 47.1953H371.586V34C371.586 33.5156 371.484 33.0547 371.281 32.6172C371.094 32.1797 370.836 31.7969 370.508 31.4688C370.18 31.1406 369.797 30.8828 369.359 30.6953C368.922 30.4922 368.461 30.3906 367.977 30.3906H348.781V25.6094H367.977C369.148 25.6094 370.242 25.8281 371.258 26.2656C372.273 26.7031 373.164 27.3047 373.93 28.0703C374.695 28.8203 375.297 29.7031 375.734 30.7188C376.172 31.7344 376.391 32.8281 376.391 34V52Z" fill="white"/>
</svg>
